
<svg width="450px" height="450px" viewBox="0 0 128 122" version="1.1" xmlns="http://www.w3.org/2000/svg" xmlns:xlink="http://www.w3.org/1999/xlink">
    <g id="Page-1" stroke="none" stroke-width="1" fill="none" fill-rule="evenodd">
        <g id="20-Diagrams-Element-Icons" transform="translate(-1038.000000, -729.000000)">
            <g id="decrease" transform="translate(1038.000000, 729.000000)">
                <rect id="Rectangle-path" fill="#E46A53" x="85.8922417" y="78.443" width="19.2009981" height="32.06425"></rect>
                <polygon id="Rectangle-path" fill="#30A987" points="55.1707446 47.405 74.3717427 47.405 74.3717427 110.50725 55.1707446 110.50725"></polygon>
                <rect id="Rectangle-path" fill="#61ACD2" x="24.4492476" y="18.1625" width="19.2009981" height="92.34475"></rect>
                <polygon id="Rectangle-path" fill="#F4A026" points="55.1707446 78.443 74.3717427 78.443 74.3717427 110.50725 55.1707446 110.50725"></polygon>
                <polygon id="Rectangle-path" fill="#EFEFEF" points="24.4492476 58.948 43.6502456 58.948 43.6502456 110.507 24.4492476 110.507"></polygon>
                <path d="M126.866963,108.569 L117.266464,100.23225 C116.197801,99.30425 114.580959,99.42025 113.655267,100.4905 C112.729326,101.56125 112.84485,103.181 113.913263,104.10875 L118.327392,107.94175 L107.653489,107.94175 L107.653489,97.04 L115.589988,97.04 C117.003977,97.04 118.149988,95.89125 118.149988,94.47475 C118.149988,93.05825 117.003727,91.9095 115.589988,91.9095 L107.653489,91.9095 L107.653489,78.4425 C107.653489,77.026 106.507228,75.87725 105.09324,75.87725 L85.8922417,75.87725 C84.775423,75.87725 83.8285224,76.595 83.4784561,77.59375 L76.9317427,70.4605 L76.9317427,47.405 C76.9317427,45.9885 75.7854815,44.83975 74.3714932,44.83975 L55.1704951,44.83975 C54.4504016,44.83975 53.8006706,45.13875 53.3353294,45.6185 L46.2099961,38.32 L46.2099961,18.1625 C46.2099961,16.746 45.0637349,15.59725 43.6497466,15.59725 L24.4492476,15.59725 C23.0352593,15.59725 21.8889981,16.746 21.8889981,18.1625 L21.8889981,87.2525 L14.7207485,84.60625 L14.7207485,9.51975 L18.5462768,13.9425 C19.0527875,14.52775 19.7651462,14.82775 20.4819961,14.82775 C21.0760858,14.82775 21.6731696,14.6215 22.1577232,14.201 C23.2261365,13.27325 23.3416608,11.653 22.4154698,10.583 L14.0949708,0.96375 C14.0787524,0.945 14.0640312,0.92975 14.0485614,0.913 C13.7808343,0.61925 13.4437427,0.38525 13.0552515,0.24025 C12.0539571,-0.134 10.9259103,0.1545 10.2257778,0.96325 L1.90552827,10.5825 C0.979586745,11.65325 1.09511111,13.27325 2.16352437,14.20125 C3.23193762,15.12925 4.84877973,15.01325 5.77472125,13.943 L9.60049903,9.52 L9.60049903,107.942 L2.56024951,107.942 C1.14626121,107.942 0,109.09075 0,110.50725 C0,111.92375 1.14626121,113.07225 2.56024951,113.07225 L9.60049903,113.07225 L9.60049903,119.35675 C9.60049903,120.77325 10.7467602,121.922 12.1607485,121.922 C13.5747368,121.922 14.7209981,120.77325 14.7209981,119.35675 L14.7209981,113.07225 L118.327641,113.07225 L113.913513,116.90525 C112.845099,117.833 112.729575,119.45325 113.655766,120.52325 C114.162277,121.1085 114.874635,121.4085 115.591485,121.4085 C116.185575,121.4085 116.782659,121.20225 117.267212,120.78175 L126.867712,112.445 C126.884928,112.43 126.8994,112.4155 126.915368,112.401 C127.209793,112.13225 127.444335,111.79375 127.589801,111.40325 C127.962823,110.4005 127.674635,109.27025 126.866963,108.569 Z M88.4524912,81.00825 L102.53324,81.00825 L102.53324,91.91 L96.6167953,91.91 L88.4524912,83.01425 L88.4524912,81.00825 Z M83.3322417,107.942 L76.9319922,107.942 L76.9319922,97.8305 L83.3322417,100.43425 L83.3322417,107.942 Z M83.3322417,85.014 L83.3322417,94.89725 L76.9319922,92.2935 L76.9319922,78.04025 L83.3322417,85.014 Z M71.8117427,75.87775 L57.7309942,75.87775 L57.7309942,57.45675 L62.9133723,62.76525 L71.8114932,72.461 L71.8114932,75.87775 L71.8117427,75.87775 Z M57.7309942,81.00825 L71.8117427,81.00825 L71.8117427,90.21025 L65.7346121,87.73775 C65.3156803,87.56775 64.8598207,87.5115 64.4121949,87.5745 L57.7309942,88.52275 L57.7309942,81.00825 Z M57.7309942,49.97 L71.8117427,49.97 L71.8117427,64.88175 L66.6558129,59.26375 C66.6380975,59.24425 66.619883,59.22525 66.6014191,59.20625 L57.7307446,50.12025 L57.7307446,49.97 L57.7309942,49.97 Z M52.6107446,52.21225 L52.6107446,89.24975 L46.2104951,90.15825 L46.2104951,45.6565 L52.6107446,52.21225 Z M52.6107446,94.43125 L52.6107446,107.942 L46.2104951,107.942 L46.2104951,95.33975 L52.6107446,94.43125 Z M41.0899961,20.7275 L41.0899961,33.07525 L35.5483197,27.39875 C34.559501,26.38575 32.9384172,26.36775 31.9281404,27.35875 C30.9173645,28.34925 30.8993996,29.9735 31.8882183,30.986 L41.0899961,40.4115 L41.0899961,56.3825 L27.0092476,56.3825 L27.0092476,20.7275 L41.0899961,20.7275 Z M27.0092476,61.51325 L41.0899961,61.51325 L41.0899961,90.885 L34.3292008,91.8445 L27.0092476,89.1425 L27.0092476,61.51325 Z M14.7207485,90.07375 L21.8889981,92.72 L21.8889981,107.942 L14.7207485,107.942 L14.7207485,90.07375 Z M27.0092476,107.942 L27.0092476,94.61 L33.1644756,96.88225 C33.5616998,97.029 33.989115,97.074 34.4087953,97.015 L41.0899961,96.06675 L41.0899961,107.942 L27.0092476,107.942 Z M57.7309942,107.942 L57.7309942,93.7045 L64.4471267,92.751 L71.8114932,95.74725 L71.8114932,107.942 L57.7309942,107.942 Z M88.4524912,107.942 L88.4524912,98.68375 L88.4524912,98.665 L88.4524912,90.59325 L93.6084211,96.21125 C94.0932242,96.73975 94.7766394,97.04 95.4929903,97.04 L102.53324,97.04 L102.53324,107.94175 L88.4524912,107.94175 L88.4524912,107.942 Z" id="Shape" fill="#231F20"></path>
            </g>
        </g>
    </g>
</svg>
