
<svg width="350px" height="350px" viewBox="0 0 152 125" version="1.1" xmlns="http://www.w3.org/2000/svg" xmlns:xlink="http://www.w3.org/1999/xlink">
    <g id="Page-1" stroke="none" stroke-width="1" fill="none" fill-rule="evenodd">
        <g id="illustrations-ninalimpi" transform="translate(-566.000000, -141.000000)">
            <g id="undraw_note_list_etto" transform="translate(566.541047, 141.000000)">
                <path d="M150.511879,118.794669 L150.511879,119.567317 C150.510791,120.398224 150.159699,121.190227 149.544744,121.74901 C148.929789,122.307792 148.107878,122.581646 147.280664,122.50338 C141.230829,121.92853 135.208808,120.859185 129.138884,121.046166 C117.947846,121.387676 106.664091,125.964845 95.8315627,123.136952 C92.7765115,122.339579 89.7554568,120.953448 86.6123237,121.25169 C83.7921576,121.519026 81.2825961,123.113772 78.5505119,123.861696 C70.2414526,126.142554 61.7809542,120.378598 53.1674715,120.611937 C47.4900522,120.766467 42.0536991,123.531003 36.3824609,123.223489 C33.0956152,123.047325 29.9648445,121.845084 26.7583543,121.104887 C18.7753525,119.259803 10.5543751,120.290516 2.32876183,120.930268 C1.72879687,120.976259 1.13678328,120.770298 0.694914763,120.361856 C0.253046249,119.953413 0.00124851579,119.379394 0,118.77767 L0,118.116284 C0,116.921462 0.968593935,115.952868 2.16341511,115.952868 L147.563454,115.835426 C148.346923,115.836654 149.097792,116.14917 149.650774,116.704181 C150.203756,117.259191 150.51352,118.0112 150.511879,118.794669 Z" id="Path" fill="#3F3D56" fill-rule="nonzero"></path>
                <path d="M150.511879,118.794669 L150.511879,119.567317 C150.510791,120.398224 150.159699,121.190227 149.544744,121.74901 C148.929789,122.307792 148.107878,122.581646 147.280664,122.50338 C141.230829,121.92853 135.208808,120.859185 129.138884,121.046166 C117.947846,121.387676 106.664091,125.964845 95.8315627,123.136952 C92.7765115,122.339579 89.7554568,120.953448 86.6123237,121.25169 C83.7921576,121.519026 81.2825961,123.113772 78.5505119,123.861696 C70.2414526,126.142554 61.7809542,120.378598 53.1674715,120.611937 C47.4900522,120.766467 42.0536991,123.531003 36.3824609,123.223489 C33.0956152,123.047325 29.9648445,121.845084 26.7583543,121.104887 C18.7753525,119.259803 10.5543751,120.290516 2.32876183,120.930268 C1.72879687,120.976259 1.13678328,120.770298 0.694914763,120.361856 C0.253046249,119.953413 0.00124851579,119.379394 0,118.77767 L0,118.116284 C0,116.921462 0.968593935,115.952868 2.16341511,115.952868 L147.563454,115.835426 C148.346923,115.836654 149.097792,116.14917 149.650774,116.704181 C150.203756,117.259191 150.51352,118.0112 150.511879,118.794669 Z" id="Path" fill="#000000" fill-rule="nonzero" opacity="0.1"></path>
                <path d="M150.511879,117.382268 L150.511879,118.154916 C150.511693,118.262276 150.50602,118.369557 150.494881,118.476338 C150.323498,120.084371 148.890635,121.255461 147.280664,121.103342 C141.230829,120.526946 135.208808,119.457601 129.138884,119.644582 C117.947846,119.987638 106.664091,124.564806 95.8315627,121.735368 C92.7765115,120.937995 89.7554568,119.551864 86.6123237,119.850106 C83.7921576,120.117443 81.2825961,121.712189 78.5505119,122.461657 C70.2414526,124.736334 61.7809542,118.972378 53.1674715,119.204172 C47.4900522,119.358702 42.0536991,122.123237 36.3824609,121.817269 C33.0956152,121.63956 29.9648445,120.438864 26.7583543,119.697122 C18.7768978,117.853583 10.5543751,118.884296 2.32876183,119.524049 C1.22044235,119.609607 0.227656735,118.841301 0.0324512266,117.746958 C0.0102150089,117.621478 -0.000646159773,117.494247 2.19600407e-15,117.366815 L2.19600407e-15,116.705428 C2.19600407e-15,115.510607 0.968593935,114.542013 2.16341511,114.542013 L38.6061426,114.512652 L113.060073,114.45084 L147.563454,114.423025 C148.346923,114.424253 149.097792,114.736769 149.650774,115.29178 C150.203756,115.84679 150.51352,116.598799 150.511879,117.382268 Z" id="Path" fill="#3F3D56" fill-rule="nonzero"></path>
                <path d="M114.906703,114.89434 C114.906703,115.235851 114.232953,115.563454 112.990535,115.870968 C108.016226,117.099478 93.9540274,117.984933 77.3559977,117.984933 C61.0268495,117.984933 47.1330887,117.127294 41.9687077,115.928144 C40.5779409,115.605177 39.8052926,115.257485 39.8052926,114.89434 C39.8052926,114.767626 39.8980104,114.642457 40.0803554,114.518833 L114.534286,114.457021 C114.779988,114.600734 114.906703,114.739811 114.906703,114.89434 Z" id="Path" fill="#000000" fill-rule="nonzero" opacity="0.1"></path>
                <g id="Group" opacity="0.5" transform="translate(85.300367, 0.000000)" fill-rule="nonzero">
                    <rect id="Rectangle" fill="#36334A" x="0" y="0" width="62.1209195" height="18.6980877" rx="2.94069925"></rect>
                    <rect id="Rectangle" fill="#6C63FF" x="7.57195287" y="4.01777091" width="14.3712575" height="3.24512266"></rect>
                    <rect id="Rectangle" fill="#6C63FF" opacity="0.3" x="7.57195287" y="9.27177902" width="44.0409504" height="1.69982615"></rect>
                    <rect id="Rectangle" fill="#6C63FF" opacity="0.3" x="7.57195287" y="12.9804906" width="17.6163801" height="1.69982615"></rect>
                </g>
                <g id="Group" opacity="0.5" transform="translate(7.417423, 15.143906)" fill-rule="nonzero">
                    <rect id="Rectangle" fill="#36334A" x="0" y="0.0788101217" width="62.1209195" height="18.6980877" rx="2.94069925"></rect>
                    <rect id="Rectangle" fill="#36334A" x="7.57195287" y="4.09658103" width="14.3712575" height="3.24512266"></rect>
                    <rect id="Rectangle" fill="#36334A" x="7.57195287" y="9.35058914" width="44.0409504" height="1.69982615"></rect>
                    <rect id="Rectangle" fill="#36334A" x="7.57195287" y="13.0593008" width="17.6163801" height="1.69982615"></rect>
                    <rect id="Rectangle" fill="#36334A" x="0" y="0.0788101217" width="62.1209195" height="18.6980877" rx="2.94069925"></rect>
                    <rect id="Rectangle" fill="#6C63FF" x="7.57195287" y="4.09658103" width="14.3712575" height="3.24512266"></rect>
                    <rect id="Rectangle" fill="#6C63FF" opacity="0.3" x="7.57195287" y="9.35058914" width="44.0409504" height="1.69982615"></rect>
                    <rect id="Rectangle" fill="#6C63FF" opacity="0.3" x="7.57195287" y="13.0593008" width="17.6163801" height="1.69982615"></rect>
                </g>
                <rect id="Rectangle" fill="#3F3D56" fill-rule="nonzero" x="103.160904" y="32.6892022" width="1.5932007" height="13.1381109" rx="0.353872899"></rect>
                <rect id="Rectangle" fill="#3F3D56" fill-rule="nonzero" x="50.1850493" y="22.3959822" width="1" height="4.32528491" rx="0.231794476"></rect>
                <rect id="Rectangle" fill="#3F3D56" fill-rule="nonzero" x="50.152598" y="30.3140815" width="1.00753332" height="7.52868457" rx="0.261155109"></rect>
                <rect id="Rectangle" fill="#3F3D56" fill-rule="nonzero" x="50.168051" y="40.4774966" width="1" height="7.59358702" rx="0.248792737"></rect>
                <rect id="Rectangle" fill="#3F3D56" fill-rule="nonzero" x="50.6919065" y="8.10198957" width="53.3281823" height="108.382461" rx="5.51516322"></rect>
                <rect id="Rectangle" fill="#E6E8EC" fill-rule="nonzero" x="72.2117056" y="11.3393857" width="7.44678385" height="1.51284528" rx="0.392505312"></rect>
                <circle id="Oval" fill="#E6E8EC" fill-rule="nonzero" cx="81.6426502" cy="12.0950357" r="1"></circle>
                <path d="M100.727062,15.160904 L100.727062,109.423991 C100.726209,111.762676 98.8300901,113.658103 96.4914043,113.658103 L58.2205911,113.658103 C55.8819053,113.658103 53.9857866,111.762676 53.9849334,109.423991 L53.9849334,15.160904 C53.9849334,12.8216148 55.8813019,10.9252463 58.2205911,10.9252463 L63.9474599,10.9252463 L63.9474599,11.6685339 C63.9483126,13.594403 65.509325,15.1554154 67.4351941,15.1562681 L86.9059301,15.1562681 C88.8291344,15.1520076 90.3859425,13.591743 90.3859378,11.6685339 L90.3859378,10.9329728 L96.4914043,10.9329728 C98.8276794,10.9329689 100.7228,12.8246328 100.727062,15.160904 Z" id="Path" fill="#36334A" fill-rule="nonzero"></path>
                <rect id="Rectangle" fill="#3F3D56" fill-rule="nonzero" x="55.3216148" y="19.9343249" width="4.79041916" height="1"></rect>
                <rect id="Rectangle" fill="#3F3D56" fill-rule="nonzero" x="55.3216148" y="21.0160325" width="4.79041916" height="1"></rect>
                <rect id="Rectangle" fill="#3F3D56" fill-rule="nonzero" x="55.3216148" y="22.09774" width="4.79041916" height="1"></rect>
                <rect id="Rectangle" fill="#3F3D56" fill-rule="nonzero" x="55.3216148" y="19.9343249" width="4.79041916" height="1"></rect>
                <rect id="Rectangle" fill="#3F3D56" fill-rule="nonzero" x="55.3216148" y="21.0160325" width="4.79041916" height="1"></rect>
                <rect id="Rectangle" fill="#3F3D56" fill-rule="nonzero" x="55.3216148" y="22.09774" width="4.79041916" height="1"></rect>
                <path d="M98.5373769,21.4796214 L98.3967549,21.4796214 L98.3426695,21.4348078 C98.520306,21.2230736 98.6176911,20.9555381 98.6177323,20.6791578 C98.6143094,20.0442093 98.0968103,19.5322548 97.4618617,19.5356716 C96.8269132,19.5390883 96.3149537,20.0565825 96.3183644,20.6915311 C96.321775,21.3264797 96.8392642,21.8384441 97.4742129,21.8350396 C97.7497845,21.8330843 98.0162039,21.7359067 98.2283176,21.5599768 L98.2808576,21.6047904 L98.2808576,21.7469577 L99.1678578,22.6355032 L99.4336488,22.3697122 L98.5373769,21.4796214 Z M97.4742129,21.4796214 C97.1501773,21.4808725 96.857352,21.2866411 96.7324811,20.9876295 C96.6076101,20.688618 96.6753294,20.3438187 96.9040153,20.1142464 C97.1327012,19.8846742 97.477236,19.8156215 97.7767283,19.9393348 C98.0762207,20.0630481 98.2715834,20.3551198 98.2715859,20.6791578 C98.272822,20.8912946 98.1893097,21.0951451 98.0395942,21.2454409 C97.8898788,21.3957367 97.6863529,21.4800369 97.4742129,21.4796214 Z" id="Shape" fill="#3F3D56" fill-rule="nonzero"></path>
                <rect id="Rectangle" fill="#6C63FF" fill-rule="nonzero" x="55.3216148" y="30.9059301" width="14.3712575" height="3.24512266"></rect>
                <rect id="Rectangle" fill="#6C63FF" fill-rule="nonzero" opacity="0.3" x="55.3216148" y="36.1599382" width="44.0409504" height="1.69982615"></rect>
                <rect id="Rectangle" fill="#6C63FF" fill-rule="nonzero" opacity="0.3" x="55.3216148" y="39.8686498" width="17.6163801" height="1.69982615"></rect>
                <rect id="Rectangle" fill="#6C63FF" fill-rule="nonzero" x="55.3216148" y="68.6111648" width="14.3712575" height="3.24512266"></rect>
                <rect id="Rectangle" fill="#6C63FF" fill-rule="nonzero" opacity="0.3" x="55.3216148" y="73.8651729" width="44.0409504" height="1.69982615"></rect>
                <rect id="Rectangle" fill="#6C63FF" fill-rule="nonzero" opacity="0.3" x="55.3216148" y="77.5738845" width="17.6163801" height="1.69982615"></rect>
                <rect id="Rectangle" fill="#6C63FF" fill-rule="nonzero" x="55.3216148" y="87.4637821" width="14.3712575" height="3.24512266"></rect>
                <rect id="Rectangle" fill="#6C63FF" fill-rule="nonzero" opacity="0.3" x="55.3216148" y="92.7177902" width="44.0409504" height="1.69982615"></rect>
                <rect id="Rectangle" fill="#6C63FF" fill-rule="nonzero" opacity="0.3" x="55.3216148" y="96.4265018" width="17.6163801" height="1.69982615"></rect>
                <circle id="Oval" fill="#6C63FF" fill-rule="nonzero" cx="91.481553" cy="104.462044" r="5.25400811"></circle>
                <path d="M94.1595519,104.047904 L94.1595519,106.586826 C94.1595519,106.693507 94.0730703,106.779988 93.9663898,106.779988 L88.7896465,106.779988 C88.6829661,106.779988 88.5964845,106.693507 88.5964845,106.586826 L88.5964845,102.542785 C88.5964845,102.436105 88.6829661,102.349623 88.7896465,102.349623 L92.3917327,102.349623" id="Path" stroke="#FFFFFF" stroke-width="0.5" stroke-linecap="round"></path>
                <path d="M89.5762024,103.843925 L93.0778443,103.843925" id="Path" stroke="#FFFFFF" stroke-width="0.5" stroke-linecap="round"></path>
                <path d="M89.6271972,104.565579 L93.1303844,104.565579" id="Path" stroke="#FFFFFF" stroke-width="0.5" stroke-linecap="round"></path>
                <path d="M89.678192,105.285687 L93.1813792,105.285687" id="Path" stroke="#FFFFFF" stroke-width="0.5" stroke-linecap="round"></path>
                <path d="M93.4904385,102.144099 L93.4904385,103.89492" id="Path" stroke="#FF00FF" stroke-width="0.5"></path>
                <path d="M94.3666216,103.020282 L92.6142554,103.020282" id="Path" stroke="#FF00FF" stroke-width="0.5"></path>
                <path d="M93.4904385,102.144099 L93.4904385,103.89492" id="Path" stroke="#FFFFFF" stroke-width="0.5" stroke-linecap="round"></path>
                <path d="M94.3666216,103.020282 L92.6142554,103.020282" id="Path" stroke="#FFFFFF" stroke-width="0.5" stroke-linecap="round"></path>
                <path d="M137.315047,115.15086 C137.778636,114.299401 137.253235,113.254781 136.652115,112.49604 C136.050995,111.7373 135.321615,110.950744 135.337068,109.978752 C135.360247,108.587985 136.836005,107.767433 138.015067,107.028781 C138.890563,106.482273 139.697756,105.833302 140.419548,105.095615 C140.722046,104.811988 140.9721,104.477187 141.1582,104.106625 C141.402357,103.562681 141.396175,102.944562 141.380722,102.349623 C141.328182,100.365463 141.229798,98.3828472 141.085571,96.4017771" id="Path" stroke="#3F3D56" stroke-width="0.618118602"></path>
                <path d="M143.327796,96.2936063 C143.294404,95.555374 142.886505,94.8852541 142.246088,94.5165154 L141.760865,95.4776898 L141.776318,94.3140815 C141.544215,94.246057 141.302474,94.2168184 141.060846,94.2275449 C139.869112,94.2866439 138.950229,95.2994619 139.007038,96.4913071 C139.063847,97.6831523 140.074898,98.6039798 141.26685,98.5494603 C142.458803,98.4949408 143.381571,97.485661 143.329341,96.2936063 L143.327796,96.2936063 Z" id="Path" fill="#57B894" fill-rule="nonzero"></path>
                <path d="M139.459919,110.972378 C138.991066,111.881111 137.94999,112.337477 136.963995,112.066492 C135.978,111.795507 135.316385,110.871183 135.377808,109.850474 C135.439231,108.829766 136.206916,107.991453 137.218293,107.840664 C138.229669,107.689874 139.208504,108.267793 139.564999,109.226193 L138.209774,110.327989 L139.700985,109.983388 C139.700435,110.327533 139.617792,110.666581 139.459919,110.972378 Z" id="Path" fill="#57B894" fill-rule="nonzero"></path>
                <path d="M138.389028,106.761445 C137.272121,106.840337 136.279572,106.053967 136.100902,104.948624 C135.922233,103.843281 136.616488,102.784253 137.701371,102.507244 L137.689009,103.400425 L138.180413,102.428433 C138.755124,102.400326 139.317356,102.602322 139.742774,102.989752 C140.168193,103.377181 140.421746,103.918122 140.447363,104.49295 C140.460059,104.743208 140.428676,104.993751 140.354646,105.233147 C140.087621,106.106346 139.301104,106.717876 138.389028,106.761445 Z" id="Path" fill="#57B894" fill-rule="nonzero"></path>
                <path d="M143.653854,103.258258 C142.741236,103.291801 141.905844,102.748668 141.566181,101.90095 C141.226518,101.053232 141.455748,100.083527 142.139034,99.4776255 C142.82232,98.8717238 143.812482,98.7601359 144.613483,99.1987638 L144.230249,100.249565 L145.01835,99.4923701 C145.441093,99.8779017 145.693904,100.415194 145.72146,100.986672 C145.731749,101.187569 145.71354,101.38891 145.667375,101.584702 C145.448254,102.531469 144.624726,103.215952 143.653854,103.258258 Z" id="Path" fill="#57B894" fill-rule="nonzero"></path>
                <path d="M143.035735,96.8715472 C142.535059,96.9256326 142.048291,97.0817076 141.546069,97.1126135 C141.043848,97.1435194 140.492177,97.0245316 140.173846,96.6335716 C140.003863,96.4234112 139.917327,96.1576202 139.773614,95.9273711 C139.63636,95.7134681 139.448466,95.5367205 139.226579,95.4127873 C138.869582,96.1590312 138.969387,97.0435241 139.483699,97.6914513 C139.998011,98.3393785 140.83678,98.6372951 141.644568,98.4589553 C142.452356,98.2806155 143.087728,97.6572446 143.281437,96.8530037 C143.200052,96.8560943 143.118151,96.8622754 143.035735,96.8715472 Z" id="Path" fill="#000000" fill-rule="nonzero" opacity="0.1"></path>
                <path d="M143.653854,103.258258 C142.892949,103.296865 142.167829,102.932388 141.744847,102.298707 C141.321864,101.665025 141.263382,100.855567 141.590883,100.167665 C141.762967,100.28336 141.910961,100.431354 142.026656,100.603438 C142.181186,100.836778 142.275449,101.107205 142.456249,101.320456 C142.794669,101.717597 143.371064,101.847402 143.89492,101.824223 C144.418775,101.801043 144.924087,101.651149 145.440216,101.603245 C145.512845,101.603245 145.585474,101.592428 145.659648,101.590883 C145.438931,102.53255 144.619997,103.213312 143.653854,103.258258 Z" id="Path" fill="#000000" fill-rule="nonzero" opacity="0.1"></path>
                <path d="M138.389028,106.761445 C137.635441,106.799599 136.916419,106.442361 136.491627,105.818742 C136.066834,105.195124 135.99765,104.395233 136.309059,103.707939 C136.488989,103.825451 136.64607,103.974677 136.772648,104.148348 C136.941086,104.386324 137.046166,104.661387 137.243964,104.880819 C137.610199,105.287232 138.225227,105.430945 138.778443,105.418582 C139.331659,105.40622 139.833881,105.27487 140.367008,105.233147 C140.098462,106.110469 139.305725,106.722982 138.389028,106.761445 Z" id="Path" fill="#000000" fill-rule="nonzero" opacity="0.1"></path>
                <path d="M139.459919,110.972378 C138.971322,112.064359 137.690011,112.553499 136.59803,112.064902 C135.506049,111.576306 135.016909,110.294995 135.505505,109.203013 C135.684512,109.32007 135.844948,109.463316 135.981456,109.62797 C136.188526,109.878308 136.324512,110.164188 136.562488,110.400618 C137.005988,110.836392 137.72146,111.018737 138.359668,111.032644 C138.727289,111.034386 139.094688,111.014261 139.459919,110.972378 Z" id="Path" fill="#000000" fill-rule="nonzero" opacity="0.1"></path>
                <path d="M134.043655,114.169596 C134.043655,114.169596 135.755843,114.117056 136.271972,113.749276 C136.788101,113.381495 138.898976,112.944176 139.031872,113.532934 C139.164767,114.121692 141.60479,116.468997 139.67317,116.478269 C137.741549,116.487541 135.182538,116.178482 134.666409,115.860151 C134.15028,115.54182 134.043655,114.169596 134.043655,114.169596 Z" id="Path" fill="#656380" fill-rule="nonzero"></path>
                <path d="M139.707166,116.27429 C137.774,116.289743 135.216535,115.972957 134.701951,115.656172 C134.309446,115.416651 134.153371,114.560556 134.100831,114.16496 L134.043655,114.16496 C134.043655,114.16496 134.151825,115.546455 134.661773,115.864787 C135.171721,116.183118 137.735368,116.493722 139.668534,116.482905 C140.226386,116.482905 140.418003,116.280471 140.407186,115.986865 C140.334557,116.159938 140.122851,116.269654 139.707166,116.27429 Z" id="Path" fill="#000000" fill-rule="nonzero" opacity="0.2"></path>
                <path d="M99.2080355,51.1539502 L99.2080355,63.9706394 C99.2080355,65.5921824 97.8935152,66.9067027 96.2719722,66.9067027 L53.9849334,66.9067027 L53.9849334,48.208615 L96.2719722,48.208615 C97.0522737,48.2086111 97.8004815,48.5192179 98.3513675,49.0718436 C98.9022534,49.6244692 99.2104997,50.3736525 99.2080355,51.1539502 Z" id="Path" fill="#3F3D56" fill-rule="nonzero"></path>
                <rect id="Rectangle" fill="#F2F2F2" fill-rule="nonzero" x="32.1421673" y="45.5862469" width="62.1209195" height="18.6980877" rx="2.94069925"></rect>
                <rect id="Rectangle" fill="#F2F2F2" fill-rule="nonzero" x="32.1421673" y="45.5862469" width="62.1209195" height="18.6980877" rx="2.94069925"></rect>
                <rect id="Rectangle" fill="#6C63FF" fill-rule="nonzero" x="39.7141201" y="49.6040178" width="14.3712575" height="3.24512266"></rect>
                <rect id="Rectangle" fill="#6C63FF" fill-rule="nonzero" opacity="0.3" x="39.7141201" y="54.8580259" width="44.0409504" height="1.69982615"></rect>
                <rect id="Rectangle" fill="#6C63FF" fill-rule="nonzero" opacity="0.3" x="39.7141201" y="58.5667375" width="17.6163801" height="1.69982615"></rect>
                <circle id="Oval" fill="#3F3D56" fill-rule="nonzero" cx="14.2692679" cy="38.1440989" r="5.524435"></circle>
                <path d="M11.064323,81.1187947 C11.6345374,85.1195673 10.939154,89.1991501 9.8559011,93.091752 C9.65346726,93.816496 9.43558045,94.5474213 9.05698281,95.1979911 C8.67838517,95.8485609 8.15143906,96.4079583 7.70639366,97.0198957 C6.77921576,98.2963106 6.23527139,99.8014294 5.72686884,101.291095 C4.32522,105.413085 3.14803755,109.608023 2.20050222,113.857446 C2.14340642,114.031626 2.14340642,114.219485 2.20050222,114.393664 C2.33494302,114.702724 2.74290129,114.742901 3.07823064,114.741356 L7.41433263,114.718177 C7.56886228,114.42148 7.28298242,114.100058 7.10527332,113.815723 C6.48715472,112.854549 7.08054858,111.605949 7.62603825,110.599961 C8.95180227,108.156706 9.97807707,105.562483 10.6826347,102.873479 C10.9793317,101.740777 11.2203979,100.583349 11.7025304,99.5155495 C12.2851072,98.2205911 13.1983774,97.1064323 13.9401198,95.8949198 C14.8023952,94.4871547 15.4313309,92.9588565 16.0556307,91.4243771 C16.9271779,89.2949585 17.8064516,87.1392698 18.1495074,84.8645934 C18.4724744,82.7289936 18.3133089,80.5532161 18.1031485,78.4037087 C18.1229656,78.2739887 18.0791731,78.1426553 17.985469,78.0507884 C17.8917648,77.9589216 17.75959,77.9177381 17.6302878,77.9401198 L11.8122465,77.6403322 C10.6130964,77.5785204 10.3287618,77.31582 10.5111068,78.4933359 C10.6378211,79.3726096 10.9376087,80.2287039 11.064323,81.1187947 Z" id="Path" fill="#3F3D56" fill-rule="nonzero"></path>
                <path d="M11.064323,81.1187947 C11.6345374,85.1195673 10.939154,89.1991501 9.8559011,93.091752 C9.65346726,93.816496 9.43558045,94.5474213 9.05698281,95.1979911 C8.67838517,95.8485609 8.15143906,96.4079583 7.70639366,97.0198957 C6.77921576,98.2963106 6.23527139,99.8014294 5.72686884,101.291095 C4.32522,105.413085 3.14803755,109.608023 2.20050222,113.857446 C2.14340642,114.031626 2.14340642,114.219485 2.20050222,114.393664 C2.33494302,114.702724 2.74290129,114.742901 3.07823064,114.741356 L7.41433263,114.718177 C7.56886228,114.42148 7.28298242,114.100058 7.10527332,113.815723 C6.48715472,112.854549 7.08054858,111.605949 7.62603825,110.599961 C8.95180227,108.156706 9.97807707,105.562483 10.6826347,102.873479 C10.9793317,101.740777 11.2203979,100.583349 11.7025304,99.5155495 C12.2851072,98.2205911 13.1983774,97.1064323 13.9401198,95.8949198 C14.8023952,94.4871547 15.4313309,92.9588565 16.0556307,91.4243771 C16.9271779,89.2949585 17.8064516,87.1392698 18.1495074,84.8645934 C18.4724744,82.7289936 18.3133089,80.5532161 18.1031485,78.4037087 C18.1229656,78.2739887 18.0791731,78.1426553 17.985469,78.0507884 C17.8917648,77.9589216 17.75959,77.9177381 17.6302878,77.9401198 L11.8122465,77.6403322 C10.6130964,77.5785204 10.3287618,77.31582 10.5111068,78.4933359 C10.6378211,79.3726096 10.9376087,80.2287039 11.064323,81.1187947 Z" id="Path" fill="#000000" fill-rule="nonzero" opacity="0.1"></path>
                <path d="M12.2078424,71.3911532 C11.0256906,73.0909793 9.78636276,75.0473247 10.1788681,77.0824802 C10.4771103,78.6277767 11.6546262,79.8253815 12.7656944,80.9457215 C17.2068766,85.4054472 21.5738845,90.3596678 23.0851845,96.4713154 C23.4745992,98.0506085 23.6631254,99.6716245 23.9984547,101.261735 C24.6073015,104.151439 25.6982809,106.914429 26.7799884,109.660421 L29.6727835,116.982036 C31.5146041,117.027293 33.1880668,115.915768 33.860537,114.200502 C33.4803941,114.171142 32.9843539,113.803361 32.7618312,113.494302 C31.525594,111.783658 31.2721653,109.583156 30.9553796,107.497006 C30.6045973,105.191424 30.1363724,102.904385 29.6666023,100.618891 L27.595905,90.5095615 C27.356384,89.3428627 27.116863,88.1746185 26.8047132,87.0264632 C25.5962913,82.5713734 23.3061619,78.3728028 22.952289,73.7662739 C22.8997489,73.089434 22.8672977,72.3461464 22.4083446,71.8439251 C21.9262121,71.3138884 21.1350203,71.2258065 20.419548,71.1840834 C17.5252076,70.9924667 15.0280085,70.7096774 12.2078424,71.3911532 Z" id="Path" fill="#3F3D56" fill-rule="nonzero"></path>
                <path d="M4.39945915,113.753912 C4.0842951,113.67908 3.7621273,113.637644 3.43828472,113.630288 C2.80897888,113.65258 2.22707102,113.970453 1.86826347,114.487927 C1.68773011,114.777224 1.5458998,115.088939 1.44639753,115.415105 L1.02762218,116.617346 C0.903998455,116.969674 0.783465327,117.376087 0.967355611,117.699054 C1.10316813,117.902011 1.30023221,118.056305 1.52984354,118.139463 C2.54355805,118.59069 3.68553216,118.615414 4.79041916,118.723585 C5.86285494,118.828665 6.92601893,119.017191 7.98454703,119.216535 C8.34923701,119.284528 8.71238169,119.354066 9.08170755,119.391153 C9.90689589,119.474599 10.7382654,119.391153 11.5634537,119.316979 L12.4149121,119.235078 C12.6999255,119.222786 12.9818284,119.170775 13.2524628,119.080549 C13.5256614,118.987876 13.7490188,118.787413 13.8705814,118.525787 C14.0807417,118.005022 13.6295152,117.388449 13.0778443,117.28955 C12.8537763,117.244736 12.6219818,117.264825 12.3948233,117.235465 C12.1373646,117.191325 11.8862185,117.116085 11.6468997,117.011397 C10.5574657,116.583349 9.4572146,116.150666 8.49913077,115.476917 C8.23333977,115.289936 7.9551864,115.028781 7.98454703,114.704269 C8.01217269,114.565278 8.05843419,114.430651 8.12207842,114.304037 C8.25198734,113.972446 8.25638327,113.604837 8.1344408,113.270234 C8.08190071,113.128066 7.97991115,112.978173 7.83619857,112.961174 C7.42824029,112.911725 7.47768978,113.506664 7.41742322,113.733823 C7.3355225,114.042882 7.18717404,114.070697 6.8966583,114.042882 C6.06219818,113.953255 5.22773807,113.911532 4.39945915,113.753912 Z" id="Path" fill="#F2F2F2" fill-rule="nonzero"></path>
                <path d="M28.7950551,117.899942 C28.8025036,118.503752 29.0101222,119.088019 29.3853583,119.561136 C29.5000801,119.702273 29.6433113,119.817595 29.805679,119.899556 C30.0477375,119.99901 30.3096101,120.040804 30.5706007,120.021634 C31.3061965,120.005631 32.0330451,119.858586 32.7170176,119.587406 C32.9579765,119.478279 33.2057411,119.384852 33.4587599,119.307707 C33.7771915,119.242567 34.0991642,119.196129 34.4230249,119.16863 C35.7009851,118.98474 36.8228704,118.230636 38.0575623,117.848947 C38.4264684,117.75754 38.788041,117.638737 39.1392698,117.493529 C39.6275835,117.26328 40.0231794,116.87541 40.4110489,116.499903 C40.6393539,116.29737 40.836221,116.061963 40.9951709,115.801429 C41.2223295,115.378018 41.2362372,114.874251 41.245509,114.39521 C41.2538432,114.320539 41.2409907,114.245031 41.2084219,114.177323 C41.1731352,114.12856 41.124982,114.090573 41.0693452,114.067607 C40.6938381,113.882171 40.2487927,113.974889 39.833108,114.047518 C38.3310798,114.314854 36.7935098,114.265405 35.2683021,114.215955 C34.9707882,114.256851 34.6829445,114.09264 34.5667375,113.815723 L33.9872513,112.888545 C33.8219046,112.622754 33.5592042,112.318331 33.2594167,112.409504 C33.0198957,112.482133 32.922542,112.775739 32.9318138,113.027622 C32.9410856,113.279506 33.0183504,113.529844 32.9704462,113.775546 C32.9013939,114.048887 32.7224354,114.281533 32.4759513,114.418389 C32.2325302,114.550749 31.9727512,114.650504 31.7033031,114.715086 C30.8502994,114.956152 29.858219,115.22967 29.1983774,115.85706 C28.7208808,116.308287 28.7656944,117.305003 28.7950551,117.899942 Z" id="Path" fill="#F2F2F2" fill-rule="nonzero"></path>
                <path d="M28.4952675,56.5980297 C28.8280287,56.3437592 29.1136013,56.0330814 29.3389994,55.6801236 C29.5331958,55.2818844 29.6551076,54.8523155 29.6990535,54.4114352 L29.9416651,52.8785011 C30.0761059,52.0332239 30.2337261,51.1384972 30.7977593,50.4941086 C31.3617925,49.8497199 32.4852231,49.6194707 33.0585281,50.2561329 C33.3088661,50.532741 33.4077651,50.9128839 33.469577,51.2822098 C33.8266761,53.512797 33.1551892,55.7851724 31.6430365,57.4633958 C30.9491984,58.2236817 30.09774,58.8278926 29.3637242,59.5464555 C28.7239714,60.1645741 28.16921,60.8738652 27.5789067,61.5460692 C26.1513912,63.1698517 24.5163288,64.5986478 22.7158586,65.7956345 C22.7374928,64.6459339 22.8842959,63.4127873 22.7158586,62.2708132 C22.5906896,61.4456249 22.2522697,61.0005795 23.0511879,60.461271 C24.9055438,59.2003091 26.7768978,58.0598802 28.4952675,56.5980297 Z" id="Path" fill="#FBBEBE" fill-rule="nonzero"></path>
                <path d="M12.9124976,45.2895499 C12.852231,46.1116477 12.5107205,46.952289 11.83079,47.426695 C13.7562295,48.1004443 15.6553989,48.8432168 17.5282982,49.6550126 C17.1666989,49.3073208 17.0569828,48.7741935 17.0399845,48.2735175 C16.9920804,46.9646513 17.4448522,45.6774194 18.1062391,44.5493529 C18.211455,44.4062619 18.2721889,44.2353472 18.2808576,44.0579486 C18.2592235,43.6932586 17.8265405,43.5248213 17.4711223,43.43983 C16.2585273,43.1456757 15.0209683,42.9661469 13.774773,42.9036121 C13.2416457,42.8866139 12.6096195,42.7181766 12.7301526,43.3965617 C12.8445045,44.0301333 12.9604018,44.6482519 12.9124976,45.2895499 Z" id="Path" fill="#FBBEBE" fill-rule="nonzero"></path>
                <circle id="Oval" fill="#FBBEBE" fill-rule="nonzero" cx="16.6366622" cy="41.2130578" r="4.51690168"></circle>
                <path d="M21.1087502,53.4131737 C20.9510499,53.0740044 20.7589409,52.751924 20.5354452,52.4519992 C19.7164381,51.2760286 18.8757968,50.1016032 17.8249952,49.1280664 C17.0290126,48.4182002 16.1675181,47.7854028 15.2520765,47.2381688 C14.7581353,46.8995814 14.2150524,46.638985 13.6418775,46.4655206 C13.301757,46.3901447 12.9559705,46.3431095 12.6080742,46.3248986 L11.4351941,46.2290902 C11.3323505,46.2154546 11.2279762,46.2185858 11.1261348,46.238362 C10.8078037,46.3187174 10.6625459,46.7143133 10.7305389,47.0341897 C10.798532,47.3540661 11.0395982,47.6136759 11.2528491,47.8562874 C11.3053892,50.2499517 10.2406799,52.6111648 10.0969674,55.0017385 C9.84508403,59.174039 12.3963686,63.0697315 12.6003477,67.2528491 C12.6213766,67.441877 12.6013465,67.6332169 12.5416264,67.8137918 C12.5076299,67.9003284 12.4566351,67.9791385 12.4180027,68.0641298 C12.2974696,68.3268302 12.3021055,68.6250724 12.2804713,68.9140429 C12.1962775,69.944658 11.7449954,70.9108293 11.0086923,71.6368553 C11.2000507,71.8743912 11.4460608,72.06208 11.7257099,72.1838903 C12.2186595,72.3986865 12.8074174,72.4172301 13.3312729,72.5671238 C14.697315,72.9658103 16.0973537,73.3675874 17.5174812,73.2825961 C17.6939101,72.8986721 17.8031509,72.4873204 17.8404481,72.0664477 C18.0413367,71.9412787 18.2731312,72.208615 18.3040371,72.4435001 C18.334943,72.6783852 18.2901294,72.9519026 18.4585667,73.1218853 C18.6270041,73.2918679 18.840255,73.2655978 19.0457794,73.2393278 C19.9126907,73.1296117 20.7456056,72.8375507 21.5955186,72.641298 C22.4454317,72.4450454 23.3540661,72.3507823 24.1807997,72.6320263 C24.3476917,72.4203206 24.2766081,72.1066255 24.140622,71.874831 C24.0046359,71.6430365 23.8114738,71.4390574 23.734209,71.1809929 C23.6953278,71.0323101 23.6786642,70.8786919 23.6847595,70.7251304 C23.6847595,69.4039019 23.9567317,68.0687657 23.6986672,66.7722619 C23.6229477,66.392119 23.5024145,66.0212478 23.4251497,65.6395596 C23.2706201,64.8993626 23.2937995,64.1359861 23.3138884,63.3803361 C23.3339772,62.6246861 23.2428047,61.8072243 23.2273517,61.0407572 C23.2268729,60.7240098 23.2062272,60.4076142 23.1655399,60.0934904 C23.1129998,59.7643423 23.0110102,59.4429206 22.9831949,59.1106819 C22.8997489,58.26695 23.2397141,57.4293993 23.1887193,56.5825768 C23.103728,55.2968901 21.6094263,54.5984161 21.1087502,53.4131737 Z" id="Path" fill="#FF6584" fill-rule="nonzero"></path>
                <path d="M10.9144292,52.8074174 C9.82035928,55.7094843 9.28568669,58.7877149 8.7510141,61.8443114 L7.5147769,69.0237589 C7.16399459,71.0527332 6.81166699,73.0940699 6.82557466,75.1524049 C6.82557466,75.7303458 6.86266177,76.3191037 6.71122272,76.8769558 C6.51342476,77.6094263 6.02202048,78.2198184 5.64960402,78.8858412 C4.89394655,80.2459374 4.64223488,81.8289849 4.93876763,83.356384 C5.06548194,83.9976821 5.41162836,84.7255167 6.06219818,84.7996909 C6.59687077,84.8584122 7.05891443,84.4334557 7.37106432,83.9945915 C8.0880819,82.9886034 8.4435001,81.7740004 8.76183118,80.5779409 C9.78661599,76.6691851 10.5032555,72.6860748 10.9051574,68.6652501 C10.9433584,68.1562771 11.0151131,67.6503806 11.1199536,67.1508596 C11.2564293,66.6358706 11.4310141,66.131744 11.6422639,65.6426502 C12.1151246,64.4702852 12.5885004,63.2979203 13.0623913,62.1255553 C14.154916,59.4166506 15.2536218,56.6953834 16.7541047,54.1889125 C15.2706201,53.7624107 13.7268688,53.2617346 12.2433842,52.8398686 C11.8153371,52.7131543 11.356384,52.7888739 10.9144292,52.8074174 Z" id="Path" fill="#FBBEBE" fill-rule="nonzero"></path>
                <path d="M13.4858026,55.0079196 C12.4473633,54.7838517 11.3733823,54.85339 10.3133089,54.82712 C10.1627633,54.8380677 10.0128201,54.7989521 9.88680703,54.7158586 C9.67201082,54.5319683 9.76318331,54.1873672 9.87135407,53.9262121 L10.3843925,52.6899749 C10.4685983,52.4344229 10.6090638,52.2010178 10.7954414,52.0069538 C11.0565965,51.7751594 11.4243771,51.7179834 11.7705235,51.6762604 C12.8970446,51.5464555 14.056017,51.5031872 15.1485416,51.8076106 C16.2410663,52.112034 17.2686884,52.8043268 17.7570021,53.8288584 C17.9609813,54.2553602 18.0552444,54.7931234 17.7848175,55.1809929 C17.3830404,55.7573884 16.4821325,56.4017771 15.8099285,56.0865366 C15.0048291,55.7094843 14.3882557,55.2041723 13.4858026,55.0079196 Z" id="Path" fill="#FF6584" fill-rule="nonzero"></path>
                <path d="M19.007147,34.1974116 C18.1157659,34.1879959 17.241159,34.4399558 16.4914043,34.9221557 C15.0448521,33.5514366 12.9721781,33.0660412 11.0674136,33.651922 C10.7910596,32.0725573 9.37474524,30.951159 7.77409635,31.0443651 C6.17344747,31.1375711 4.8968625,32.4157775 4.8056882,34.0165434 C4.71451389,35.6173093 5.83770905,37.0321992 7.41742322,37.3065482 C6.77860619,39.224729 7.23863106,41.3386526 8.61678634,42.8179067 C9.99494162,44.2971609 12.0710674,44.9054352 14.0295996,44.4037813 C15.9881317,43.9021274 17.5161953,42.3706845 18.0135213,40.4110489 C18.3394797,40.4777687 18.6713397,40.5114206 19.0040564,40.5114931 C21.1829245,40.5114931 22.9507437,39.0975468 22.9507437,37.3544524 C22.9507437,35.6113579 21.1829245,34.1974116 19.007147,34.1974116 Z" id="Path" fill="#3F3D56" fill-rule="nonzero"></path>
                <path d="M19.7937029,38.9322001 C19.4609375,38.9331021 19.1289783,38.8994401 18.8031679,38.8317558 C18.6484051,39.3969545 18.4042563,39.9337687 18.0799691,40.4218659 C18.3855342,40.4807494 18.695961,40.5107573 19.007147,40.5114931 C21.0438478,40.5114931 22.7158586,39.2752559 22.9306548,37.6928723 C22.2059108,38.446977 21.0701178,38.9322001 19.7937029,38.9322001 Z" id="Path" fill="#000000" fill-rule="nonzero" opacity="0.1"></path>
                <path d="M13.4796214,42.8835233 C11.7267946,42.8809923 10.0788731,42.0479338 9.0375386,40.6379584 C7.99620413,39.227983 7.68467758,37.4079327 8.19779795,35.7318911 C6.68849153,35.4663499 5.58786467,34.155242 5.58779216,32.6227545 C5.58747598,32.4330663 5.60454564,32.2437483 5.63878694,32.057176 C4.85366978,32.9053857 4.59481928,34.1148225 4.96398494,35.2100784 C5.3331506,36.3053343 6.27131279,37.1113074 7.40969674,37.3111841 C6.52400181,40.2193452 8.15438693,43.2966287 11.057984,44.1971732 C13.9615811,45.0977177 17.0471559,43.4830793 17.9625266,40.5841221 C16.9262585,42.0284232 15.2572198,42.8845175 13.4796214,42.8835233 Z" id="Path" fill="#000000" fill-rule="nonzero" opacity="0.1"></path>
            </g>
        </g>
    </g>
</svg>
